<svg xmlns="http://www.w3.org/2000/svg" xmlns:xlink="http://www.w3.org/1999/xlink" id="Capa_1" x="0px" y="0px" viewBox="0 0 500 500" style="enable-background:new 0 0 500 500;" xml:space="preserve"><style type="text/css">	.st0{fill:#DEB865;}	.st1{fill:#0C1C42;}	.st2{fill:#D5B16B;}	.st3{fill:#FFFFFF;}	.st4{fill:#EA1D25;}	.st5{fill:#FCEF0A;}	.st6{fill:#154F9F;}	.st7{clip-path:url(#SVGID_00000043434526309976825980000017971589289856755368_);}	.st8{fill:#DDBD74;}	.st9{fill:#7C6939;}	.st10{fill:url(#SVGID_00000133508622197992204790000011368975597865883548_);}	.st11{clip-path:url(#SVGID_00000121244319167423899020000011747264202316371133_);}	.st12{fill-rule:evenodd;clip-rule:evenodd;fill:#D5B16B;}	.st13{fill:url(#SVGID_00000082361372477091593440000001378620670846285503_);}	.st14{clip-path:url(#SVGID_00000090283156975878700440000010059084350895274678_);}	.st15{fill:url(#SVGID_00000067921787632226795630000001953015296564617870_);}	.st16{fill:url(#SVGID_00000142898737761600371950000017414854972262708145_);}	.st17{clip-path:url(#SVGID_00000166665969963293153770000005676794877143835811_);}	.st18{fill:#F7A31B;}	.st19{fill:#F38820;}	.st20{fill:#A0864E;}	.st21{fill:#82703D;}	.st22{clip-path:url(#SVGID_00000002345500713790389080000013618683132779194799_);}	.st23{clip-path:url(#SVGID_00000159469587160225832360000009010441972867040427_);}	.st24{fill:url(#SVGID_00000007419192602881419140000011824844473913988011_);}	.st25{clip-path:url(#SVGID_00000160899725449823641100000012521805781704546236_);}	.st26{fill:url(#SVGID_00000119093061424649733430000015885084552046598311_);}	.st27{clip-path:url(#SVGID_00000114788261605192674510000001880890580528488834_);}	.st28{fill:url(#SVGID_00000128448713118252957990000000011049315916001455_);}	.st29{fill:url(#SVGID_00000033357010471501952200000017388786249308060590_);}</style><g>	<g transform="matrix(0.801645,0,0,0.801645,3222.3,491.853)">		<path class="st0" d="M-3732.5-387.3h-23.8v-43.2c0-4.3-3.9-5.4-3.9-5.4l-8.8-2.7c1.1,5.1,0.9,10.8-0.6,16.7l-13.4-10.9l-11.6,23.8   l16.4,0.8c-1.7,8.6-12,11.3-19.8,9.9c-4.2-0.7-7.9-2.5-11-5.3c-4.6-4.2-4.5-10.3-4.2-16l7,2v-10l-8.7-2.5v-7l-7.5-1.5l-1.8,5.9   l-10.5-3v10l8.4,2.4c0.3,0.1-0.9,5.1-1,5.5c-0.3,1.5-0.8,2.9-1.6,4.1c-1.3,2.2-3.4,3.9-6,5.1c-3.8,1.7-8,2.2-12.2,1.7   c-9.4-1-15.4-8.2-17.3-16.4l20.4-12l-28.5-28.7l-28.5,28.7l20.4,12c-1.9,8.2-7.9,15.4-17.3,16.4c-4.1,0.4-8.4,0-12.2-1.7   c-2.6-1.2-4.6-2.9-6-5.1c-0.8-1.2-1.3-2.6-1.6-4.1c-0.1-0.4-1.3-5.4-1-5.5c0,0,8.4-2.4,8.4-2.4v-10l-10.5,3l-1.8-5.9l-7.5,1.5v7   l-8.7,2.5v10l7-2c0.2,5.7,0.4,11.7-4.3,16c-3.1,2.8-6.8,4.6-11,5.3c-7.9,1.4-18.2-1.3-19.8-9.9l16.4-0.8l-11.6-23.8l-13.4,10.9   c-1.5-5.8-1.7-11.6-0.6-16.7l-9.1,2.8c0,0-3.6,1.4-3.6,5.3v43.2h-23.3c-0.2,3.1-5.4,82.2,16.5,138.4   c14.4,36.7,53.4,82.7,120,101.5l1,0.3l1-0.2c78.8-18.7,106.8-64.1,122.4-101.5C-3733-291.4-3731.7-355.7-3732.5-387.3"></path>	</g>	<g transform="matrix(0.801645,0,0,0.801645,3101.14,355.358)">		<path class="st1" d="M-3722.8,19.1c-63.1-18.2-100.1-61.8-113.7-96.6c-18-46-17.3-106.5-16.6-124.6h263.9   c0.4,31.6-1.7,85.6-17.9,124.6C-3621.9-42-3648.4,1-3722.8,19.1"></path>	</g>	<g transform="matrix(0.801645,0,0,0.801645,3202.86,521.338)">		<path class="st2" d="M-3730.9-393.1v-23h-234.3v23c0.1,25.3,2.5,69.1,15.9,103.5c12,30.8,44.5,69.3,100,86.7   c64.4-16.9,87.5-53.4,101.5-87.1C-3734.9-321-3731.5-363.3-3730.9-393.1L-3730.9-393.1z"></path>	</g>	<g transform="matrix(0.801645,0,0,0.801645,3202.86,521.338)">		<path class="st0" d="M-3730.9-393.1v-23h-234.3v23c0.1,25.3,2.5,69.1,15.9,103.5c12,30.8,44.5,69.3,100,86.7   c64.4-16.9,87.5-53.4,101.5-87.1C-3734.9-321-3731.5-363.3-3730.9-393.1L-3730.9-393.1z"></path>	</g>	<g transform="matrix(0.801645,0,0,0.801645,3105.33,394.738)">		<path class="st3" d="M-3723.2-142.7l70.5,43.9c8.8-11.5,15-23.8,19.9-35.6c12.5-30.1,15.8-71.4,16.3-100.8l0-1.5v-14.5h-106.7   V-142.7z"></path>	</g>	<g transform="matrix(0.801645,0,0,0.801645,3126.46,456.786)">		<path class="st4" d="M-3724.9-328.5h-24.8v108.4l7.7,4.8h84.1c3.5-9.2,6.2-19.2,8.3-29.6h-75.4V-328.5z"></path>	</g>	<g transform="matrix(0.801645,0,0,0.801645,3135.7,355.472)">		<path class="st1" d="M-3725.6-136.6l71.1-44.6c0-1.7,0.1-3.3,0.1-4.9l0-1.5v-14.5h-71.2V-136.6z"></path>	</g>	<g transform="matrix(0.801645,0,0,0.801645,3135.78,383.4)">		<path class="st4" d="M-3725.6-164.5v2.8h13.7l51.2-31.8l5.2-3.2c0.3-4,0.5-7.9,0.7-11.8l-5.8,3.6L-3725.6-164.5z"></path>	</g>	<g transform="matrix(0.801645,0,0,0.801645,3192.32,407.653)">		<path class="st1" d="M-3730.1-192c0.9-5.6,1.7-11.3,2.4-16.9l-27,16.9H-3730.1z"></path>	</g>	<g transform="matrix(0.801645,0,0,0.801645,3170.49,470.875)">		<path class="st1" d="M-3728.4-222.5l8.7,5.4c0.9-1.8,1.7-3.6,2.6-5.4H-3728.4z"></path>	</g>	<g transform="matrix(0.699581,-0.391434,-0.391434,-0.699581,3174.68,476.09)">		<path class="st4" d="M-3153.5,2006.5c2.8,1.6,5.5,3.2,8.2,4.9l-8.6,15.8l-15.6,8.8L-3153.5,2006.5z"></path>	</g>	<g transform="matrix(0.801645,0,0,0.801645,3165.65,492.049)">		<path class="st1" d="M-3728-220.2l-74.6-46.5l-72.8,45.4c16.2,19.1,40.2,37.3,72.7,47.8c15.2-4.1,28.5-9.6,40.1-16.3   c0.1-0.1,0.3-0.2,0.4-0.2c0.3-0.2,0.6-0.4,0.9-0.6C-3746.9-199.2-3736.2-209.4-3728-220.2"></path>	</g>	<g transform="matrix(0.801645,0,0,0.801645,3008.36,429.317)">		<path class="st5" d="M-3715.5-294.3v16.1c0.1,15.8,1.1,41.4,5.9,66.8l101.5-63.6v-19.2H-3715.5z"></path>	</g>	<g transform="matrix(0.801645,0,0,0.801645,3021.59,379.354)">		<path class="st6" d="M-3716.5-114.7c0.9,2.4,2,4.8,3.2,7.3c0,0,0,0.1,0.1,0.2l88.6-55.6v-49.9l-101.5,63.6   C-3723.8-137.2-3720.7-125.5-3716.5-114.7"></path>	</g>	<g transform="matrix(0.801645,0,0,0.801645,3039.43,417.339)">		<path class="st4" d="M-3717.9-128.1l71.1-44.3v-37.8l-88.6,55.6C-3731.3-146-3725.5-136.9-3717.9-128.1"></path>	</g>	<g transform="matrix(0.801645,0,0,0.801645,3106.01,394.718)">		<path class="st0" d="M-3723.2-144.7v-113.4h-8.1v112.3l-72.9,45.4c1.5,1.8,3,3.6,4.6,5.3l71.5-44.6l73.5,45.8   c1.5-1.8,2.9-3.6,4.3-5.5L-3723.2-144.7z"></path>	</g>	<g transform="matrix(0.801645,0,0,0.801645,2775.33,49.376)">		<g>			<defs>				<path id="SVGID_1_" d="M-3424.8,179.5v14.7l0,1.5c0.1,23.2,2.2,67.2,15.4,101.2c11.2,28.5,41.6,65,93.6,81.9     c27.1-7.4,48.2-18.8,64.3-34.8c15.9-15.8,24.6-33.7,30.4-47.6c12.5-30.1,15.8-71.4,16.3-100.8l0-2.2v-13.8H-3424.8z"></path>			</defs>			<clipPath id="SVGID_00000025437340075464781350000003966228136647514275_">				<use xlink:href="#SVGID_1_" style="overflow:visible;"></use>			</clipPath>			<g style="clip-path:url(#SVGID_00000025437340075464781350000003966228136647514275_);">				<g transform="matrix(1,0,0,1,480.812,529.32)">					<path class="st8" d="M-3727.6-218.1v0.7l9.1,0.2l2.6-0.5v-0.8h-0.2v0.1l-2.4,0.4L-3727.6-218.1z"></path>				</g>				<g transform="matrix(1,0,0,1,428.719,565.864)">					<path class="st9" d="M-3724.3-241.5l1.2,0.1v-4.9l-3.8-0.1l-1,0.1v4.7l-2.3-0.1v-4.8l-3.9-0.1l-0.9,0.1v4.5l-3.6-0.2l1.4,0.1      v-4.6l-4.1-0.1l-0.9,0.1v4.3l-3.4-0.2l1.4,0.1v-4.4l-4-0.1l-0.9,0.1v4.2l-2.2-0.1v-4.2l-4.1-0.1l-0.7,0.1v4l-2.1-0.1v-4.1      l-3.3-0.1l-1.4,0.1v3.8l-2.1-0.1v-3.9l-3.1,0l-1.7,0v3.6l-2-0.1l0.6,0v-3.8l-3.3,0l-1.4,0v3.5l-2.3-0.1l1.1,0.1v-3.6l-3.6-0.1      l-1.2,0.1v3.4l-2.4-0.1v29.4l11.8-0.7c0,0,4.2-17.3,18.6-18h1.7c24.8,0.2,36.2,16.5,36.2,16.5l0.2-23.9L-3724.3-241.5z"></path>				</g>				<g transform="matrix(1,0,0,1,365.518,527.363)">					<path class="st8" d="M-3720.2-217.5v0.5l6.5,0l1.7-0.4v-0.5h-0.2v0.1l-1.6,0.3L-3720.2-217.5z"></path>				</g>			</g>		</g>	</g>	<g transform="matrix(6.93299,0,0,-6.93299,3068.22,455.493)">					<linearGradient id="SVGID_00000098915826132532230490000003108908560084184729_" gradientUnits="userSpaceOnUse" x1="-555.4559" y1="-60.8215" x2="-554.1036" y2="-60.8215" gradientTransform="matrix(4.7995 0 0 -4.5917 2235.7622 -254.398)">			<stop offset="0" style="stop-color:#56020B"></stop>			<stop offset="0.25" style="stop-color:#7D1725"></stop>			<stop offset="0.52" style="stop-color:#EB402A"></stop>			<stop offset="0.75" style="stop-color:#7D1725"></stop>			<stop offset="1" style="stop-color:#5E0612"></stop>		</linearGradient>		<path style="fill:url(#SVGID_00000098915826132532230490000003108908560084184729_);" d="M-429.7,25.3l-0.4-0.8h0.6l0.3,0   L-429.7,25.3C-429.7,25.3-429.7,25.3-429.7,25.3C-429.7,25.3-429.7,25.3-429.7,25.3z"></path>	</g>	<g transform="matrix(0.801645,0,0,0.801645,2775.33,49.376)">		<g>			<defs>				<path id="SVGID_00000135673012883239810560000013287588632404308625_" d="M-3424.8,179.5v14.7l0,1.5     c0.1,23.2,2.2,67.2,15.4,101.2c11.2,28.5,41.6,65,93.6,81.9c27.1-7.4,48.2-18.8,64.3-34.8c15.9-15.8,24.6-33.7,30.4-47.6     c12.5-30.1,15.8-71.4,16.3-100.8l0-2.2v-13.8H-3424.8z"></path>			</defs>			<clipPath id="SVGID_00000044895457670908712910000014735868672218476435_">				<use xlink:href="#SVGID_00000135673012883239810560000013287588632404308625_" style="overflow:visible;"></use>			</clipPath>			<g style="clip-path:url(#SVGID_00000044895457670908712910000014735868672218476435_);">				<g transform="matrix(0.00107847,0.999999,0.999999,-0.00107847,376.873,515.996)">											<rect x="-220.3" y="-3721" transform="matrix(5.180563e-05 1 -1 5.180563e-05 -3945.2944 -3510.7305)" class="st12" width="6.2" height="-14.1"></rect>				</g>				<g transform="matrix(1,0,0,1,372.279,527.182)">					<path class="st9" d="M-3720.7-231.4l1.7,0l0,13.8l-1.6,0.3"></path>				</g>				<g transform="matrix(1,0,0,1,373.205,511.434)">					<path class="st8" d="M-3719.6-216.4h-8.9l0.8,0.7l6.2,0l1.7,0L-3719.6-216.4z"></path>				</g>			</g>		</g>	</g>			<linearGradient id="SVGID_00000052818759073030975260000008614926228515361162_" gradientUnits="userSpaceOnUse" x1="172.0614" y1="277.2626" x2="182.0113" y2="277.2626">		<stop offset="0" style="stop-color:#56020B"></stop>		<stop offset="0.25" style="stop-color:#7D1725"></stop>		<stop offset="0.4765" style="stop-color:#EB402A"></stop>		<stop offset="0.75" style="stop-color:#7D1725"></stop>		<stop offset="1" style="stop-color:#5E0612"></stop>	</linearGradient>	<path style="fill:url(#SVGID_00000052818759073030975260000008614926228515361162_);" d="M176.5,272.8l-4.5,9l6.3,0l3.6-0.1l-5-9  c0,0-0.1-0.2-0.3-0.2C176.6,272.6,176.5,272.8,176.5,272.8z"></path>	<g transform="matrix(0.801645,0,0,0.801645,2775.33,49.376)">		<g>			<defs>				<path id="SVGID_00000175282271876610723830000016816365031769650847_" d="M-3424.8,179.5v14.7l0,1.5     c0.1,23.2,2.2,67.2,15.4,101.2c11.2,28.5,41.6,65,93.6,81.9c27.1-7.4,48.2-18.8,64.3-34.8c15.9-15.8,24.6-33.7,30.4-47.6     c12.5-30.1,15.8-71.4,16.3-100.8l0-2.2v-13.8H-3424.8z"></path>			</defs>			<clipPath id="SVGID_00000069360084124838708060000008833703257568692618_">				<use xlink:href="#SVGID_00000175282271876610723830000016816365031769650847_" style="overflow:visible;"></use>			</clipPath>			<g style="clip-path:url(#SVGID_00000069360084124838708060000008833703257568692618_);">				<g transform="matrix(0.000783596,1,1,-0.000783596,497.403,512.527)">					<path class="st2" d="M-224.7-3743.8l20.6,0l0.1,8.9l-20.7,0.2L-224.7-3743.8z"></path>				</g>				<g transform="matrix(1,0,0,1,490.665,528.883)">					<path class="st9" d="M-3728.2-238.2l2.5,0l-0.2,20.3l-2.4,0.4"></path>				</g>				<g transform="matrix(1,0,0,1,492.008,505.791)">					<path class="st8" d="M-3728.3-216.1l-11.4,0l1.1,1.1l9,0l2.5,0l0.5-1L-3728.3-216.1z"></path>				</g>				<g transform="matrix(1,0,0,1,355.84,593.425)">					<path class="st9" d="M-3719.6-294.6h-2v70.6h0.1l13.6-12.2v-53.1l2.1-2v-3.6L-3719.6-294.6z"></path>				</g>			</g>		</g>	</g>			<linearGradient id="SVGID_00000154384914269123457320000009857287805460138373_" gradientUnits="userSpaceOnUse" x1="133.036" y1="257.2123" x2="177.0196" y2="257.2123">		<stop offset="0" style="stop-color:#56020B"></stop>		<stop offset="0.25" style="stop-color:#7D1725"></stop>		<stop offset="0.4765" style="stop-color:#EB402A"></stop>		<stop offset="0.75" style="stop-color:#7D1725"></stop>		<stop offset="1" style="stop-color:#5E0612"></stop>	</linearGradient>	<path style="fill:url(#SVGID_00000154384914269123457320000009857287805460138373_);" d="M152.8,226.8L133,288.4l28,0l16-0.3  l-22-61.4c0,0-0.3-0.8-1.1-0.8C153.1,226,152.8,226.8,152.8,226.8z"></path>			<linearGradient id="SVGID_00000032633237096228177060000000344168165637547964_" gradientUnits="userSpaceOnUse" x1="61.4457" y1="270.0972" x2="88.8838" y2="270.0972">		<stop offset="0" style="stop-color:#56020B"></stop>		<stop offset="0.25" style="stop-color:#7D1725"></stop>		<stop offset="0.4765" style="stop-color:#EB402A"></stop>		<stop offset="0.75" style="stop-color:#7D1725"></stop>		<stop offset="1" style="stop-color:#5E0612"></stop>	</linearGradient>	<path style="fill:url(#SVGID_00000032633237096228177060000000344168165637547964_);" d="M73.8,251.1l-12.3,38.5l17.5,0l10-0.1  l-13.7-38.4c0,0-0.2-0.5-0.7-0.5C74,250.6,73.8,251.1,73.8,251.1z"></path>	<g transform="matrix(0.801645,0,0,0.801645,2775.33,49.376)">		<g>			<defs>				<path id="SVGID_00000000193033475447106700000003050868216423555744_" d="M-3424.8,179.5v14.7l0,1.5     c0.1,23.2,2.2,67.2,15.4,101.2c11.2,28.5,41.6,65,93.6,81.9c27.1-7.4,48.2-18.8,64.3-34.8c15.9-15.8,24.6-33.7,30.4-47.6     c12.5-30.1,15.8-71.4,16.3-100.8l0-2.2v-13.8H-3424.8z"></path>			</defs>			<clipPath id="SVGID_00000144330282850386991520000010130293357217251735_">				<use xlink:href="#SVGID_00000000193033475447106700000003050868216423555744_" style="overflow:visible;"></use>			</clipPath>			<g style="clip-path:url(#SVGID_00000144330282850386991520000010130293357217251735_);">				<g transform="matrix(1,0,0,1,353.743,521.272)">					<path class="st8" d="M-3719.5-222.4h2l13.8-0.6v3.9l-2.1,2l-13.7,1.1V-222.4z"></path>				</g>				<g transform="matrix(1,0,0,1,353.743,547.788)">					<path class="st9" d="M-3719.5-176.3l23.5-3c0,0,0.3-25.8,18.1-31.8l7.9-5.7c0,0-21.4-1.8-22.6-1.9c-1.1-0.1-14.4-0.7-15.8,0      c-1.4,0.7-11,4.4-11,4.4V-176.3z"></path>				</g>				<g transform="matrix(-0.998738,-0.0502159,-0.0502159,0.998738,432.022,540.72)">					<path class="st18" d="M3726.6-25.4l4,0l0.3-5.9l-4-0.1L3726.6-25.4z"></path>				</g>				<g transform="matrix(0.987384,-0.158342,-0.158342,-0.987384,431.877,541.164)">					<path class="st19" d="M-3642.8,806.1l0.7,0l3.3-0.6l0-0.1L-3642.8,806.1z"></path>				</g>				<g transform="matrix(-0.998782,-0.0493387,-0.0493387,0.998782,353.213,538.277)">					<path class="st2" d="M3721.3-30.2l4.3,0l0.2-4.4l-4.3-0.1L3721.3-30.2z"></path>				</g>				<g transform="matrix(-0.998547,-0.0538926,-0.0538926,0.998547,361.073,538.444)">					<path class="st2" d="M3721.9-13l4.3,0l0.2-4.6l-4.3-0.1L3721.9-13z"></path>				</g>				<g transform="matrix(-0.998784,-0.0493065,-0.0493065,0.998784,369.202,538.752)">					<path class="st2" d="M3722.3-30l4.3,0l0.2-4.7l-4.3-0.1L3722.3-30z"></path>				</g>				<g transform="matrix(-0.998618,-0.0525473,-0.0525473,0.998618,378.217,538.894)">					<path class="st2" d="M3723-17.6l4.3,0l0.3-5l-4.3-0.1L3723-17.6z"></path>				</g>				<g transform="matrix(-0.998571,-0.0534403,-0.0534403,0.998571,387.221,539.152)">					<path class="st2" d="M3723.6-14.1l4.3,0l0.3-5.2l-4.3-0.1L3723.6-14.1z"></path>				</g>				<g transform="matrix(-0.998685,-0.051265,-0.051265,0.998685,396.376,539.392)">					<path class="st2" d="M3724.1-21.9l4.3,0l0.3-5.5l-4.3-0.1L3724.1-21.9z"></path>				</g>				<g transform="matrix(-0.998571,-0.0534403,-0.0534403,0.998571,405.49,539.618)">					<path class="st2" d="M3724.7-13.6l4.3,0l0.3-5.6l-4.3-0.1L3724.7-13.6z"></path>				</g>				<g transform="matrix(-0.998627,-0.0523756,-0.0523756,0.998627,414.875,539.861)">					<path class="st2" d="M3725.3-17.3l4.3,0l0.3-5.9l-4.3-0.1L3725.3-17.3z"></path>				</g>				<g transform="matrix(-0.998662,-0.0517078,-0.0517078,0.998662,424.033,540.107)">					<path class="st2" d="M3725.9-19.6l4.3,0l0.3-6.1l-4.3-0.1L3725.9-19.6z"></path>				</g>				<g transform="matrix(0.997384,-0.0722912,-0.0722912,-0.997384,357.367,538.577)">					<path class="st20" d="M-3694,486.9l1.6,0l-0.3-4.4l-1.6,0.2L-3694,486.9z"></path>				</g>				<g transform="matrix(0.997417,-0.0718328,-0.0718328,-0.997417,365.186,538.753)">					<path class="st20" d="M-3694.7,485.2l1.6,0l-0.3-4.6l-1.6,0.2L-3694.7,485.2z"></path>				</g>				<g transform="matrix(0.997374,-0.0724186,-0.0724186,-0.997374,373.339,539.053)">					<path class="st20" d="M-3695,487.5l1.6,0l-0.3-4.7l-1.6,0.2L-3695,487.5z"></path>				</g>				<g transform="matrix(0.996932,-0.0782715,-0.0782715,-0.996932,382.292,539.217)">					<path class="st20" d="M-3692.6,509.2l1.6,0l-0.4-5l-1.6,0.2L-3692.6,509.2z"></path>				</g>				<g transform="matrix(0.997738,-0.0672298,-0.0672298,-0.997738,391.326,539.446)">					<path class="st20" d="M-3698.6,468.4l1.6,0l-0.3-5.2l-1.6,0.2L-3698.6,468.4z"></path>				</g>				<g transform="matrix(0.997364,-0.0725572,-0.0725572,-0.997364,400.457,539.695)">					<path class="st20" d="M-3696.6,488.2l1.6,0l-0.4-5.4l-1.6,0.2L-3696.6,488.2z"></path>				</g>				<g transform="matrix(0.997321,-0.0731488,-0.0731488,-0.997321,409.549,539.928)">					<path class="st20" d="M-3696.9,490.4l1.6,0l-0.4-5.6l-1.6,0.2L-3696.9,490.4z"></path>				</g>				<g transform="matrix(0.997534,-0.0701902,-0.0701902,-0.997534,418.928,540.16)">					<path class="st20" d="M-3698.9,479.5l1.6,0l-0.4-5.8l-1.6,0.2L-3698.9,479.5z"></path>				</g>				<g transform="matrix(0.997974,-0.0636253,-0.0636253,-0.997974,428.198,540.39)">					<path class="st20" d="M-3702.6,455.2l1.6,0l-0.4-6.1l-1.6,0.2L-3702.6,455.2z"></path>				</g>				<g transform="matrix(-0.999807,-0.0196372,-0.0196372,0.999807,352.977,538.355)">					<path class="st21" d="M3717.2-145.5l4.4,0l1.4,0.1l-4.3,0L3717.2-145.5z"></path>				</g>				<g transform="matrix(0.9958,-0.0915506,-0.0915506,-0.9958,423.861,540.507)">					<path class="st21" d="M-3688.3,559l1.2,0l4.6-0.5l-1.6,0L-3688.3,559z"></path>				</g>				<g transform="matrix(0.997534,-0.0701902,-0.0701902,-0.997534,419.15,539.992)">					<path class="st21" d="M-3699.1,479.4l1.6,0l-4.7,0.4l-1.1,0L-3699.1,479.4z"></path>				</g>				<g transform="matrix(0.997321,-0.0731488,-0.0731488,-0.997321,409.772,539.752)">					<path class="st21" d="M-3697.1,490.3l1.6,0l-4.8,0.4l-1,0L-3697.1,490.3z"></path>				</g>				<g transform="matrix(0.997364,-0.0725572,-0.0725572,-0.997364,400.671,539.521)">					<path class="st21" d="M-3696.8,488l1.6,0l-4.7,0.4l-1.2,0L-3696.8,488z"></path>				</g>				<g transform="matrix(0.997738,-0.0672298,-0.0672298,-0.997738,391.516,539.285)">					<path class="st21" d="M-3698.8,468.2l1.6,0l-5,0.4l-0.9,0L-3698.8,468.2z"></path>				</g>				<g transform="matrix(0.996932,-0.0782715,-0.0782715,-0.996932,382.501,539.03)">					<path class="st21" d="M-3692.8,509.1l1.6,0l-4.1,0.4l-1.7,0.1L-3692.8,509.1z"></path>				</g>				<g transform="matrix(0.997374,-0.0724186,-0.0724186,-0.997374,373.522,538.881)">					<path class="st21" d="M-3695.2,487.3l1.6,0l-3.7,0.3l-2.1,0.1L-3695.2,487.3z"></path>				</g>				<g transform="matrix(0.999645,0.0266572,0.0266572,-0.999645,360.788,538.48)">					<path class="st21" d="M-3724.4,119.2l4.3,0l1.6,0.2l-4.1-0.1L-3724.4,119.2z"></path>				</g>				<g transform="matrix(1,0,0,1,424.877,600.394)">					<path class="st2" d="M-3724-305.3v5.1l4.7,4.5v22.9l-71.3-3.5v-25.2h-22.8v3.4l3.1,3v64.6h19.7v-21.6c0.1-0.2,8.7-12,37-11.7      c16.3,0.1,27.6,6.3,34.3,11.6v27.3l29.9,0v-80.3H-3724z"></path>				</g>				<g transform="matrix(1,0,0,1,465.055,593.495)">					<path class="st9" d="M-3726.6-298.4h-3v75h0.1l20.6-4.7v-61.8l3.1-4.3v-5.1L-3726.6-298.4z"></path>				</g>				<g transform="matrix(1,0,0,1,461.858,521.126)">					<path class="st8" d="M-3726.4-226l2.7,0l21.2-0.9v5.1l-3.1,4.3l-20.7,1.7L-3726.4-226z"></path>				</g>				<g transform="matrix(1,0,0,1,461.858,519.191)">					<path class="st8" d="M-3726.4-221.6v-2.4l-34.6-0.2v5.1l4.7,5.1l29.9,0.2L-3726.4-221.6z"></path>				</g>				<g transform="matrix(1,0,0,1,353.743,521.978)">					<path class="st8" d="M-3719.5-223.1h-22.8v3.4l3.1,2.7l19.7,0.3V-223.1v6.4"></path>				</g>			</g>		</g>	</g>	<g transform="matrix(0.801645,0,0,0.801645,2775.33,49.376)">		<g>			<defs>				<path id="SVGID_00000116946563160194204570000015031723977880203701_" d="M-3424.8,179.5v14.7l0,1.5     c0.1,23.2,2.2,67.2,15.4,101.2c11.2,28.5,41.6,65,93.6,81.9c27.1-7.4,48.2-18.8,64.3-34.8c15.9-15.8,24.6-33.7,30.4-47.6     c12.5-30.1,15.8-71.4,16.3-100.8l0-2.2v-13.8H-3424.8z"></path>			</defs>			<clipPath id="SVGID_00000065045194501720135820000000749459900520434570_">				<use xlink:href="#SVGID_00000116946563160194204570000015031723977880203701_" style="overflow:visible;"></use>			</clipPath>			<g style="clip-path:url(#SVGID_00000065045194501720135820000000749459900520434570_);">				<g transform="matrix(0.000645063,1,1,-0.000645063,438.888,514.608)">					<path class="st2" d="M-225.4-3742.3l23.6,0l0.2,10l-23.8,0.2L-225.4-3742.3z"></path>				</g>				<g transform="matrix(1,0,0,1,430.904,506.781)">					<path class="st9" d="M-3724.4-191.4l2.7-0.8l0.3-23l-2.8,0"></path>				</g>				<g transform="matrix(1,0,0,1,432.615,506.795)">					<path class="st8" d="M-3724.5-216.4l-12.9,0l1.3,1.2l10.2,0l2.8,0l0.8-1.2L-3724.5-216.4z"></path>				</g>				<g transform="matrix(1,0,0,1,420.179,533.714)">					<path class="st8" d="M-3723.7-218.5l10,0.2l2.7-0.8v-0.1h0.3v1.1l-2.9,0.9l-10.4-0.3v-1l0.3-0.1V-218.5z"></path>				</g>			</g>		</g>	</g>	<g transform="matrix(0.801645,0,0,0.801645,2775.33,49.376)">		<g>			<defs>				<path id="SVGID_00000008837276872770778420000003198432103066314419_" d="M-3424.8,179.5v14.7l0,1.5     c0.1,23.2,2.2,67.2,15.4,101.2c11.2,28.5,41.6,65,93.6,81.9c27.1-7.4,48.2-18.8,64.3-34.8c15.9-15.8,24.6-33.7,30.4-47.6     c12.5-30.1,15.8-71.4,16.3-100.8l0-2.2v-13.8H-3424.8z"></path>			</defs>			<clipPath id="SVGID_00000054242888797585209140000002559915246624663198_">				<use xlink:href="#SVGID_00000008837276872770778420000003198432103066314419_" style="overflow:visible;"></use>			</clipPath>			<g style="clip-path:url(#SVGID_00000054242888797585209140000002559915246624663198_);">				<g transform="matrix(0.00124652,0.999999,0.999999,-0.00124652,473.641,514.65)">					<path class="st2" d="M-227.9-3745.1l24.4,0l0.3,10.5l-24.7,0.2L-227.9-3745.1z"></path>				</g>				<g transform="matrix(1,0,0,1,465.58,534.106)">					<path class="st9" d="M-3726.6-242.7l2.9,0l-0.2,24.2l-2.8,0.5"></path>				</g>				<g transform="matrix(1,0,0,1,467.187,506.593)">					<path class="st8" d="M-3726.7-216.4l-13.5,0l1.3,1.3l10.7,0l2.9,0l0.8-1.2L-3726.7-216.4z"></path>				</g>				<g transform="matrix(1,0,0,1,454.188,535.013)">					<path class="st8" d="M-3725.9-219.1v-0.1l-0.2,0.1v1.1l10.7,0.4l3.1-0.7v-1.2h-0.2v0.1l-2.8,0.5L-3725.9-219.1z"></path>				</g>			</g>		</g>	</g>			<linearGradient id="SVGID_00000176026296640345241610000001943532027166896780_" gradientUnits="userSpaceOnUse" x1="56.5795" y1="282.8146" x2="63.6861" y2="282.8146">		<stop offset="0" style="stop-color:#56020B"></stop>		<stop offset="0.25" style="stop-color:#7D1725"></stop>		<stop offset="0.4765" style="stop-color:#EB402A"></stop>		<stop offset="0.75" style="stop-color:#7D1725"></stop>		<stop offset="1" style="stop-color:#5E0612"></stop>	</linearGradient>	<path style="fill:url(#SVGID_00000176026296640345241610000001943532027166896780_);" d="M59.8,279.7l-3.2,6.5l4.5,0l2.6,0  l-3.5-6.4c0,0-0.1-0.1-0.2-0.1C59.8,279.5,59.8,279.7,59.8,279.7z"></path>	<g transform="matrix(0.801645,0,0,0.801645,2775.33,49.376)">		<g>			<defs>				<path id="SVGID_00000015335389039002936670000016566414250070521738_" d="M-3424.8,179.5v14.7l0,1.5     c0.1,23.2,2.2,67.2,15.4,101.2c11.2,28.5,41.6,65,93.6,81.9c27.1-7.4,48.2-18.8,64.3-34.8c15.9-15.8,24.6-33.7,30.4-47.6     c12.5-30.1,15.8-71.4,16.3-100.8l0-2.2v-13.8H-3424.8z"></path>			</defs>			<clipPath id="SVGID_00000119840574542252964600000009360181343722246829_">				<use xlink:href="#SVGID_00000015335389039002936670000016566414250070521738_" style="overflow:visible;"></use>			</clipPath>			<g style="clip-path:url(#SVGID_00000119840574542252964600000009360181343722246829_);">				<g transform="matrix(0.00208756,0.999998,0.999998,-0.00208756,339.147,516.827)">					<path class="st2" d="M-228.7-3729.9l15.9,0l0.1,6.7l-16,0.1L-228.7-3729.9z"></path>				</g>				<g transform="matrix(1,0,0,1,333.899,529.417)">					<path class="st9" d="M-3718.2-233.5l1.9,0l-0.1,15.4l-1.9,0.6"></path>				</g>				<g transform="matrix(1,0,0,1,334.931,511.591)">					<path class="st8" d="M-3717-216.5h-9.9l0.8,0.8h6.9l1.9,0L-3717-216.5z"></path>				</g>				<g transform="matrix(1,0,0,1,326.6,529.368)">					<path class="st8" d="M-3717.8-217.6L-3717.8-217.6l-0.2,0v0.5l7,0.1l2-0.7v-0.6h-0.2v0.1l-1.9,0.6L-3717.8-217.6z"></path>				</g>			</g>		</g>	</g>			<linearGradient id="SVGID_00000062163459275831375120000003159738183783591082_" gradientUnits="userSpaceOnUse" x1="72.9359" y1="281.9842" x2="80.9846" y2="281.9842">		<stop offset="0" style="stop-color:#56020B"></stop>		<stop offset="0.25" style="stop-color:#7D1725"></stop>		<stop offset="0.4765" style="stop-color:#EB402A"></stop>		<stop offset="0.75" style="stop-color:#7D1725"></stop>		<stop offset="1" style="stop-color:#5E0612"></stop>	</linearGradient>	<path style="fill:url(#SVGID_00000062163459275831375120000003159738183783591082_);" d="M76.6,278.4l-3.6,7.3l5.1,0l2.9,0l-4-7.3  c0,0-0.1-0.1-0.2-0.1C76.6,278.3,76.6,278.4,76.6,278.4z"></path>	<g transform="matrix(0.801645,0,0,0.801645,2775.33,49.376)">		<g>			<defs>				<path id="SVGID_00000116949523910661554440000001434577631212878979_" d="M-3424.8,179.5v14.7l0,1.5     c0.1,23.2,2.2,67.2,15.4,101.2c11.2,28.5,41.6,65,93.6,81.9c27.1-7.4,48.2-18.8,64.3-34.8c15.9-15.8,24.6-33.7,30.4-47.6     c12.5-30.1,15.8-71.4,16.3-100.8l0-2.2v-13.8H-3424.8z"></path>			</defs>			<clipPath id="SVGID_00000075858179966532343140000018366358756370339769_">				<use xlink:href="#SVGID_00000116949523910661554440000001434577631212878979_" style="overflow:visible;"></use>			</clipPath>			<g style="clip-path:url(#SVGID_00000075858179966532343140000018366358756370339769_);">				<g transform="matrix(0.000913193,1,1,-0.000913193,361.977,516.676)">					<path class="st2" d="M-224.6-3732.2l16.7,0l0.2,7.1l-16.8,0.1L-224.6-3732.2z"></path>				</g>				<g transform="matrix(1,0,0,1,356.436,529.913)">					<path class="st9" d="M-3719.7-234.4l2,0l-0.1,16.3l-2,0.5"></path>				</g>				<g transform="matrix(1,0,0,1,357.517,511.13)">					<path class="st8" d="M-3719.7-216.5l-9.1,0l0.9,0.8h7.2l2,0l0.3-0.8L-3719.7-216.5z"></path>				</g>				<g transform="matrix(1,0,0,1,348.749,530.28)">					<path class="st8" d="M-3719.2-218.1L-3719.2-218.1h-0.2v0.7l7.3,0.2l2.2-0.6v-0.8h-0.2v0.1l-2,0.5L-3719.2-218.1z"></path>				</g>			</g>		</g>	</g>	<g transform="matrix(0.801645,0,0,0.801645,3145.6,523.327)">		<path class="st2" d="M-3726.4-231l-0.6-8.2l-29.3,10.8v12.5C-3745.2-220.2-3735.3-224.8-3726.4-231"></path>	</g>	<g transform="matrix(0.801645,0,0,0.801645,3042.02,495.473)">		<path class="st2" d="M-3718.1-216.9c3.9,4.1,8.2,8.1,12.9,12l6.9,4.2v-34.8l-19.7-1.2V-216.9z"></path>	</g>	<g transform="matrix(0.801645,0,0,0.801645,3290.72,345.695)">		<path class="st0" d="M-3737.9-192.3c2.5,0,4.5-1.9,4.5-4.3c0-2.3-2.1-4.3-4.5-4.3c-2.4,0-4.4,2-4.4,4.3   C-3742.4-194.2-3740.4-192.3-3737.9-192.3"></path>	</g>	<g>		<g transform="matrix(0.801645,0,0,0.801645,3314.14,357.378)">			<path class="st0" d="M-3739.8-180.5l-1.4-1l-0.1,0.2c-1.3,1.3-2.6,1.8-3.2,1.8c-1.2,0-2.6-0.4-2.6-4.6v-14.4h6l0.8-2.9h-6.8v-5.7    l-12.1,7.4v1.2h3.2v14.9c0,2.6,0,4.8,1.5,6.2c1.2,1.1,3.1,1.6,6.2,1.6c3.5,0,6.3-1.5,8.4-4.6L-3739.8-180.5z"></path>		</g>		<g transform="matrix(0.801645,0,0,0.801645,3319.16,345.695)">			<path class="st0" d="M-3740.2-192.3c2.5,0,4.5-1.9,4.5-4.3c0-2.3-2.1-4.3-4.5-4.3c-2.4,0-4.5,2-4.5,4.3    C-3744.7-194.2-3742.7-192.3-3740.2-192.3"></path>		</g>		<g transform="matrix(0.801645,0,0,0.801645,3338.25,373.072)">			<path class="st0" d="M-3741.7-212.6c-0.3-0.1-0.6-0.3-0.9-0.4c-2.3-1-3.9-1.7-3.9-3.9c0-1.8,1.8-2.6,3.4-2.6    c2.8,0,5.3,2.3,6.4,5.9l0,0.2h1.5v-6.9l-0.2-0.1c-1.8-0.5-5.6-1.3-8.3-1.3c-7.5,0-11.3,2.6-11.3,7.7c0,4.1,2.2,6,5.8,7.8    c0.4,0.2,0.8,0.3,1.1,0.5c2.9,1.3,5.6,2.6,5.6,4.8c0,2.9-2.3,3.3-3.7,3.3c-4.5,0-6.3-4.6-6.8-6.7l0-0.2h-1.4v7.4l0.1,0.1    c2.3,1.1,5,1.6,8.4,1.6c7.5,0,12-3.2,12-8.5C-3733.9-209-3737.9-210.8-3741.7-212.6"></path>		</g>		<g transform="matrix(0.801645,0,0,0.801645,3251.41,347.518)">			<path class="st0" d="M-3734.8-166c-5.2,0-5.2-1.5-5.2-5.7v-11.3h1.9c6.7,0,10.1,3,10.1,8.8C-3728-170.3-3730.8-166-3734.8-166     M-3740-201.1h1.7c5.5,0,8,4.2,8,8.2c0,4.4-3.5,7.8-7.9,7.8h-1.8V-201.1z M-3728.6-185c5.1-1.4,8.2-4.8,8.2-9.2    c0-5.4-5.2-8.9-13.4-8.9h-21.8v1.9h0.3c2.6,0,3.9,0.4,4.6,1.2c0.6,0.9,0.6,2.4,0.6,4.4v27.8c0,1.4,0.6,3.6,3.6,3.6h11.7    c4.1,0,17.4-0.8,17.4-10.9C-3717.4-180.5-3721-183.7-3728.6-185"></path>		</g>		<g transform="matrix(0.801645,0,0,0.801645,3297.65,359.352)">			<path class="st0" d="M-3738.5-180.8c-1.2,0-1.9-0.2-2.3-0.6c-0.7-0.7-0.7-2.1-0.7-4.2c0-0.3,0-0.7,0-1v-17.9l-10.9,2.7    c-0.2-1.4-1.3-2.9-4-2.9c-2.3,0-4.6,2.2-5.6,3.3v-3.2l-12.1,3v1.8h0.3c1.2,0,1.9,0.2,2.3,0.6c0.7,0.7,0.7,2,0.7,4v12.6    c0.1,1.4,0.6,3.5,3.6,3.5h8.5v-1.9h-0.3c-1.2,0-1.9-0.2-2.3-0.6c-0.7-0.7-0.7-2.1-0.7-4.2c0-0.3,0-0.7,0-1v-10.7    c0-0.9,0.8-2.7,1.8-2.7c0.6,0,0.8,0.3,1.1,0.8c0.5,0.7,1,1.5,3.2,1.5c1.6,0,2.6-0.8,3.1-2c0.8,0.1,1.3,0.2,1.6,0.6    c0.7,0.7,0.7,2,0.6,4v9.6c0,0.5,0,1,0,1.4v1.4c0,1.4,0.5,3.7,3.6,3.7h8.5v-1.9H-3738.5z"></path>		</g>		<g transform="matrix(0.801645,0,0,0.801645,3326.08,359.477)">			<path class="st0" d="M-3740.8-181c-1.1,0-1.8-0.2-2.3-0.6c-0.7-0.7-0.7-2.1-0.7-4.2v-18.9l-12.1,3v1.8h0.3c1.2,0,1.9,0.2,2.3,0.6    c0.7,0.7,0.7,2,0.6,4v9.6c0,0.5,0,1,0,1.4v1.7c0.1,1.4,0.7,3.4,3.6,3.4h8.5v-1.9H-3740.8z"></path>		</g>		<g transform="matrix(0.801645,0,0,0.801645,3373.73,346.747)">			<path class="st0" d="M-3744.6-165.1c-1.2,0-1.9-0.2-2.3-0.6c-0.7-0.7-0.7-2.1-0.7-4.3v-9.5c0-7.8-4.4-9.4-8.2-9.4    c-4.1,0-8.2,2-9.8,2.9v-17l-12.1,3.1v1.7h0.3c1.1,0,1.9,0.2,2.3,0.6c0.7,0.7,0.7,2,0.7,4.1c0,0.4,0,0.7,0,1.1v21.5    c0,0.4,0,0.8,0,1.1c0,0.6,0,1.1,0,1.6v1.2h0c0,1.4,0.5,3.8,3.6,3.8h8.5v-1.9h-0.3c-1.2,0-1.9-0.2-2.3-0.6    c-0.7-0.7-0.7-2.1-0.7-4.2v-12.3c0.7-1.9,2.4-3,4.6-3c3.1,0,4.6,1.8,4.6,5.6v12.7c0,1.4,0.5,3.8,3.6,3.8h8.5v-1.9H-3744.6z"></path>		</g>		<g transform="matrix(0.801645,0,0,0.801645,3504.09,389.387)">			<path class="st0" d="M-3754.9-170.6c-1.2,0-1.9-0.2-2.3-0.6c-0.7-0.7-0.7-2.1-0.7-4.2v-33.1l-12.1,3.1v1.7h0.3    c1.1,0,1.9,0.2,2.3,0.6c0.7,0.7,0.7,2,0.7,4.1c0,0.4,0,0.7,0,1.1v21.8c0,0.3,0,0.6,0,0.8c0,0.6,0,1.1,0,1.6v1.4    c0,1.4,0.6,3.6,3.6,3.6h8.5v-1.9H-3754.9z"></path>		</g>		<g transform="matrix(0.801645,0,0,0.801645,3475.39,407.55)">			<path class="st0" d="M-3752.7-198.8c0-1.4-0.1-3.1,6.4-5.2v7.5c-0.5,0.5-1.7,1.4-2.8,1.4c-1.7,0-3.6-0.9-3.6-3.5V-198.8z     M-3733.8-193.3c0.4-0.6,0.6-1.4,0.7-2.4l0-0.3h-1.9l0,0.2c-0.1,0.6-0.5,1.5-1.6,1.5c-0.5,0-0.8-0.4-0.8-1.3v-15.9    c0-0.6-0.2-5.6-7.4-5.6c-5.4,0-15.9,2.9-15.9,7.3c0,1.2,1.2,2.9,3.8,2.9c1.6,0,2.8-0.5,3.6-1.5c1-1.2,1.2-3,1-4.1    c0.4-1.2,0.9-1.8,2.9-1.8c2.8,0,3.1,1.7,3.1,2.9v5.3c-1.2,0.4-2.4,0.8-3.5,1.2c-6.1,2-11,3.6-11,8.9c0,2.8,2.7,5.2,5.8,5.2    c3.6,0,6-1.3,8.9-3.6c0.3,2.3,2.3,3.6,5.6,3.6c2.4,0,4.8-0.2,6.2-1.9L-3733.8-193.3z"></path>		</g>		<g transform="matrix(0.801645,0,0,0.801645,3294.07,400.788)">			<path class="st0" d="M-3738.2-187.8c-1.2,1.3-2.6,1.8-3.2,1.8c-1.3,0-2.6-0.4-2.6-4.5V-205h5.9l0.8-2.9h-6.7v-5.7l-12.1,7.4v1.2    h3.2v14.9c0,2.6,0,4.8,1.5,6.3c1.2,1.1,3.1,1.6,6.1,1.6c3.5,0,6.3-1.5,8.4-4.5l0.1-0.2l-1.4-1L-3738.2-187.8z"></path>		</g>		<g transform="matrix(0.801645,0,0,0.801645,3302.33,417.378)">			<path class="st0" d="M-3738.9-222.1c0.1-2.3,1.5-5.2,4.1-5.2c2.3,0,3.6,3.6,3.7,5.2H-3738.9z M-3723.9-213    c-1.7,2.9-4.3,4.6-7,4.6c-4,0-8.4-2.3-8.4-8.6c0-1.2,0-2.1,0.1-3.2h16.9l-0.1-0.3c-0.8-5.1-5.9-8.8-12.1-8.8    c-6.8,0-14.2,4.1-14.2,13.2c0,8.6,6.7,13.2,13,13.2c6.3,0,10.7-3,13.3-9.2l0.1-0.2l-1.7-0.9L-3723.9-213z"></path>		</g>		<g transform="matrix(0.801645,0,0,0.801645,3369.65,407.55)">			<path class="st0" d="M-3744.2-198.8c0-1.4,0-3.1,6.4-5.2v7.5c-0.5,0.5-1.7,1.4-2.8,1.4c-1.7,0-3.6-0.9-3.6-3.5V-198.8z     M-3726.6-195.7c0,0.6-0.5,1.5-1.6,1.5c-0.5,0-0.8-0.4-0.8-1.3v-15.9c0-0.6-0.2-5.6-7.4-5.6c-5.5,0-15.9,2.9-15.9,7.3    c0,1.2,1.2,2.9,3.8,2.9c1.6,0,2.8-0.5,3.6-1.5c1-1.2,1.2-3,1-4.1c0.4-1.2,1-1.8,2.9-1.8c2.8,0,3.1,1.7,3.1,2.9v5.3    c-1.2,0.4-2.4,0.8-3.5,1.2c-6.1,2-11,3.6-11,8.9c0,2.8,2.7,5.2,5.8,5.2c3.6,0,6-1.3,8.9-3.6c0.3,2.3,2.3,3.6,5.6,3.6    c3.4,0,6.8-0.4,7.3-5l0-0.3h-1.9L-3726.6-195.7z"></path>		</g>		<g transform="matrix(0.801645,0,0,0.801645,3401.67,400.029)">			<path class="st0" d="M-3746.8-186.1l-1.4-1l-0.2,0.2c-1.3,1.3-2.6,1.8-3.2,1.8c-1.2,0-2.6-0.4-2.6-4.5v-14.4h6l0.8-2.9h-6.8v-5.7    l-12.1,7.4v1.2h3.2v14.9c0,2.6,0,4.8,1.5,6.3c1.2,1.1,3.1,1.6,6.2,1.6c3.5,0,6.3-1.5,8.4-4.5L-3746.8-186.1z"></path>		</g>		<g transform="matrix(0.801645,0,0,0.801645,3406.68,388.345)">			<path class="st0" d="M-3747.2-197.9c2.5,0,4.5-1.9,4.5-4.3c0-2.3-2.1-4.3-4.5-4.3c-2.4,0-4.5,2-4.5,4.3    C-3751.6-199.8-3749.6-197.9-3747.2-197.9"></path>		</g>		<g transform="matrix(0.801645,0,0,0.801645,3426.85,402.124)">			<path class="st0" d="M-3748.8-186c-3.4,0-5.6-4.5-5.6-11.1c0-6.6,2.3-11.1,5.6-11.1c3.4,0,5.6,4.5,5.6,11.1    C-3743.1-190.6-3745.5-186-3748.8-186 M-3748.8-210.3c-6.9,0-14.9,3.4-14.9,13.2c0,9.7,7.7,13.2,14.9,13.2c6.9,0,15-3.5,15-13.2    C-3733.8-206.8-3741.9-210.3-3748.8-210.3"></path>		</g>		<g transform="matrix(0.801645,0,0,0.801645,3403.48,403.697)">			<path class="st0" d="M-3746.9-190.2c0,1.4,0.5,3.7,3.6,3.7h8.5v-1.9h-0.3c-1.2,0-1.9-0.2-2.3-0.6c-0.7-0.7-0.7-2.1-0.7-4.2    c0-0.3,0-0.6,0-1v-17.9l-12.1,3.1v1.8h0.3c1.2,0,1.9,0.2,2.3,0.6c0.7,0.6,0.7,2,0.6,4V-190.2z"></path>		</g>		<g transform="matrix(0.801645,0,0,0.801645,3319.64,414.689)">			<path class="st0" d="M-3740.3-216.4c0-2,0-3.4-0.6-4c-0.4-0.4-1.1-0.6-2.3-0.6h-0.3v-1.8l12.1-3.1v3.2c1-1.1,3.4-3.3,5.6-3.3    c2.6,0,3.8,1.5,4,2.9l10.9-2.7v2.7c1.7-1.2,4.9-2.9,9.8-2.9c5.3,0,8.2,3.3,8.2,9.4v9.6c0,2.1,0,3.5,0.7,4.2    c0.4,0.4,1.1,0.6,2.3,0.6h0.3v1.9h-8.6c-3.1,0-3.6-2.2-3.6-3.6v-12.8c0-3.8-1.4-5.6-4.5-5.6c-2.2,0-3.9,1.1-4.6,3v11.3    c0,0.4,0,0.7,0,1c0,2.1,0,3.5,0.7,4.2c0.4,0.4,1.1,0.6,2.3,0.6h0.2v1.9h-8.5c-2.9,0-3.6-2.1-3.6-3.5v-12.6c0-2,0-3.4-0.7-4    c-0.3-0.3-0.8-0.5-1.6-0.6c-0.5,1.1-1.5,2-3.1,2c-2.2,0-2.8-0.9-3.2-1.5c-0.3-0.5-0.5-0.8-1.1-0.8c-1.1,0-1.9,1.8-1.9,2.7v10.6    c0,0.4,0,0.7,0,1c0,2.1,0,3.5,0.7,4.2c0.4,0.4,1.1,0.6,2.3,0.6h0.3v1.9h-8.5c-3.1,0-3.6-2.4-3.6-3.8V-216.4"></path>		</g>		<g transform="matrix(0.801645,0,0,0.801645,3442.9,403.525)">			<path class="st0" d="M-3750.1-190c0,1.4,0.6,3.6,3.6,3.6h8.5v-1.9h-0.3c-1.2,0-1.9-0.2-2.3-0.6c-0.7-0.7-0.7-2.1-0.7-4.2v-12.3    c0.7-1.9,2.4-3,4.6-3c3.1,0,4.5,1.8,4.5,5.6v5.4h0v7.3c0,1.4,0.5,3.8,3.6,3.8h8.5v-1.9h-0.3c-1.2,0-1.9-0.2-2.3-0.6    c-0.7-0.7-0.7-2.1-0.7-4.2v-9.6c0-6.1-2.9-9.4-8.2-9.4c-4.9,0-8.1,1.7-9.8,2.9v-2.7l-12.1,3.1v1.8h0.3c1.2,0,1.9,0.2,2.3,0.6    c0.7,0.6,0.7,2,0.7,4V-190z"></path>		</g>		<g transform="matrix(0.801645,0,0,0.801645,3238.26,391.825)">			<path class="st0" d="M-3733.8-175.5L-3733.8-175.5c0,1.4,0.5,3.8,3.6,3.8h10.8v-2c-4.3-0.2-4.3-1.7-4.3-5.7V-203    c0-4.3,0-5.8,5.2-5.8h0.3v-1.9h-21.1v1.9h0.3c2.6,0,3.9,0.4,4.6,1.3c0.6,0.9,0.6,2.3,0.6,4.4L-3733.8-175.5z"></path>		</g>		<g transform="matrix(0.801645,0,0,0.801645,3253.63,403.359)">			<path class="st0" d="M-3735-189.6c0.1,1.4,0.7,3.5,3.6,3.5h8.5v-1.9h-0.3c-1.1,0-1.9-0.2-2.3-0.6c-0.7-0.7-0.7-2.1-0.7-4.2    c0-0.3,0-0.6,0-1v-11.3c0.7-1.9,2.4-3,4.6-3c3.1,0,4.5,1.8,4.5,5.6v12.7c0,1.4,0.5,3.8,3.6,3.8h8.5v-1.9h-0.3    c-1.2,0-1.9-0.2-2.4-0.6c-0.7-0.7-0.7-2.1-0.7-4.2c0-0.3,0-0.6,0-1v-8.6c0-6.1-2.9-9.4-8.2-9.4c-4.9,0-8.1,1.7-9.8,2.9v-2.7    l-12.1,3.1v1.8h0.3c1.2,0,1.9,0.2,2.3,0.6c0.7,0.6,0.7,2,0.7,4V-189.6z"></path>		</g>		<g transform="matrix(0.801645,0,0,0.801645,3283.61,451.27)">			<path class="st0" d="M-3737.4-206.9l-0.1,0.2c-2.3,3.2-4.3,4.4-7.5,4.4c-2.8,0-7.4-1.9-7.4-9c0-6.4,2-10.7,5-10.7    c2,0,2.6,1.3,3.3,4.3c0.6,2.2,2,3.4,4.3,3.4c2.4,0,3.9-1.2,3.9-3.2c0-3.8-5.8-6.4-11-6.4c-6.9,0-14.9,3.4-14.9,13.2    c0,8.6,7.1,13.2,13.9,13.2c4.3,0,9.8-2.2,12.2-8.2l0.1-0.2L-3737.4-206.9z"></path>		</g>		<g transform="matrix(0.801645,0,0,0.801645,3326.32,444.804)">			<path class="st0" d="M-3740.8-191.6c-3.4,0-5.6-4.5-5.6-11.1c0-6.6,2.3-11.1,5.6-11.1c3.4,0,5.6,4.5,5.6,11.1    C-3735.2-196.2-3737.5-191.6-3740.8-191.6 M-3740.8-215.9c-6.9,0-14.9,3.4-14.9,13.2c0,9.7,7.7,13.2,14.9,13.2    c6.9,0,15-3.5,15-13.2C-3725.8-212.4-3733.9-215.9-3740.8-215.9"></path>		</g>		<g transform="matrix(0.801645,0,0,0.801645,3352.69,444.804)">			<path class="st0" d="M-3742.9-191.6c-3.4,0-5.6-4.5-5.6-11.1c0-6.6,2.3-11.1,5.6-11.1c3.4,0,5.6,4.5,5.6,11.1    C-3737.2-196.2-3739.6-191.6-3742.9-191.6 M-3742.9-215.9c-6.9,0-14.9,3.4-14.9,13.2c0,9.7,7.7,13.2,14.9,13.2    c6.9,0,15-3.5,15-13.2C-3727.9-212.4-3736-215.9-3742.9-215.9"></path>		</g>		<g transform="matrix(0.801645,0,0,0.801645,3378.69,432.041)">			<path class="st0" d="M-3745-176.2c-1.2,0-1.9-0.2-2.3-0.6c-0.7-0.7-0.7-2.1-0.7-4.2V-214l-12.1,3.1v1.7h0.3    c1.1,0,1.9,0.2,2.3,0.6c0.7,0.7,0.7,2,0.7,4.1v26.6c0,1.4,0.5,3.8,3.6,3.8h8.5v-1.9H-3745z"></path>		</g>		<g transform="matrix(0.801645,0,0,0.801645,3313.41,432.041)">			<path class="st0" d="M-3739.8-176.2c-1.2,0-1.9-0.2-2.3-0.6c-0.7-0.7-0.7-2.1-0.7-4.3v-9.5c0-7.8-4.5-9.4-8.2-9.4    c-4.1,0-8.2,2-9.8,2.9v-17l-12.1,3.1v1.7h0.3c1.2,0,1.9,0.2,2.3,0.6c0.7,0.7,0.7,2,0.7,4.1v23.8c0,0.6,0,1.2,0,1.7v1.1    c0,1.4,0.5,3.8,3.6,3.8h8.5v-1.9h-0.3c-1.2,0-1.9-0.2-2.3-0.6c-0.7-0.7-0.7-2.1-0.7-4.2v-12.3c0.7-1.9,2.4-3,4.6-3    c3.1,0,4.6,1.8,4.6,5.6v9.8c0,0.7,0,1.3,0,1.9v1.1c0,1.4,0.6,3.7,3.6,3.7h8.5v-1.9H-3739.8z"></path>		</g>		<g transform="matrix(0.801645,0,0,0.801645,3261.37,441.658)">			<path class="st0" d="M-3735.6-198.1c0-6.3-4.9-8.9-10.1-11.6c-0.6-0.3-1.3-0.6-1.9-1c-0.7-0.4-1.4-0.7-2-1.1    c-3.9-2-7.3-3.8-7.3-7.4c0-2.9,3.3-4.5,5.6-4.5c8.2,0,11.3,6.3,12.5,11.7l0,0.2h1.6v-13.4h-1.6l-1.2,1.8c-4-1.6-7.5-2.4-10.7-2.4    c-7.8,0-16.1,2.9-16.1,11c0,6,5.1,8.7,10.6,11.4c0.4,0.2,0.9,0.4,1.3,0.7c0.6,0.3,1.2,0.6,1.9,0.9c3.8,1.9,7.5,3.6,7.5,7.6    c0,3.5-3.2,6.3-7,6.3c-7,0-11.9-4.6-13-12.3l0-0.2h-1.5v11.1h0c0,1.4,0.5,3.8,3.6,3.8h11v0    C-3742.3-185.6-3735.6-190.5-3735.6-198.1"></path>		</g>	</g>			<linearGradient id="SVGID_00000059992299562628125540000011923883352896020397_" gradientUnits="userSpaceOnUse" x1="126.435" y1="277.3846" x2="137.3544" y2="277.3846">		<stop offset="0" style="stop-color:#56020B"></stop>		<stop offset="0.25" style="stop-color:#7D1725"></stop>		<stop offset="0.4765" style="stop-color:#EB402A"></stop>		<stop offset="0.75" style="stop-color:#7D1725"></stop>		<stop offset="1" style="stop-color:#5E0612"></stop>	</linearGradient>	<path style="fill:url(#SVGID_00000059992299562628125540000011923883352896020397_);" d="M131.3,272.5l-4.9,9.9l6.9,0l4-0.1  l-5.4-9.9c0,0-0.1-0.2-0.3-0.2C131.4,272.3,131.3,272.5,131.3,272.5z"></path>			<linearGradient id="SVGID_00000075860386302381079880000013526646995552187035_" gradientUnits="userSpaceOnUse" x1="152.0555" y1="276.4219" x2="163.748" y2="276.4219">		<stop offset="0" style="stop-color:#56020B"></stop>		<stop offset="0.25" style="stop-color:#7D1725"></stop>		<stop offset="0.4765" style="stop-color:#EB402A"></stop>		<stop offset="0.75" style="stop-color:#7D1725"></stop>		<stop offset="1" style="stop-color:#5E0612"></stop>	</linearGradient>	<path style="fill:url(#SVGID_00000075860386302381079880000013526646995552187035_);" d="M157.1,271.1l-5.1,10.9l7.3,0l4.4-0.1  l-6-10.8c0,0-0.1-0.2-0.3-0.2C157.3,270.9,157.1,271.1,157.1,271.1z"></path></g></svg>