<svg xmlns="http://www.w3.org/2000/svg" id="Capa_1" data-name="Capa 1" viewBox="0 0 1920 1080"><defs><style>      .cls-1 {        fill: #006837;        stroke-width: 0px;      }    </style></defs><g><path class="cls-1" d="M380.29,885l-.54,1.59c-19.39,50.68-64.08,68.63-99.63,68.63-54.93,0-113.09-38.54-113.09-110.33,0-81.3,65.7-109.81,121.7-109.81,42,0,89.39,21.64,89.39,53.32,0,16.89-11.85,26.92-31.77,26.92-17.77,0-29.62-10.03-34.47-28.51-5.92-24.28-10.77-35.37-27.46-35.37-24.23,0-40.93,35.9-40.93,89.21,0,59.65,38.23,75.49,60.85,75.49,25.85,0,42-10.03,60.85-37.48l1.08-1.59,14,7.92Z"></path><path class="cls-1" d="M621.55,911.39l-.54,2.11c-3.77,34.84-26.93,40.65-51.7,41.7-24.24-1.58-41.47-12.67-49.54-32.73h-.54c-23.16,19-46.85,32.73-75.93,32.73-25.85,0-47.39-20.06-47.39-43.82,0-43.81,39.31-57.01,89.4-73.9,9.15-3.17,18.85-6.86,28.54-10.56v-44.34c0-10.03-2.15-24.28-25.31-24.28-16.15,0-21,5.28-23.69,15.31,1.62,9.5,0,23.75-8.08,34.31-7,7.92-16.69,12.67-29.62,12.67-21,0-30.7-14.78-30.7-24.81,0-36.95,85.09-60.71,129.78-60.71,58.7,0,60.31,41.7,60.31,46.46v133.03c0,6.86,2.16,10.56,6.46,10.56,8.62,0,12.39-7.39,12.92-12.14v-1.59h15.62ZM513.84,843.82c-52.24,17.42-52.24,31.15-51.7,43.29v2.11c0,21.64,15.08,29.56,29.08,29.56,8.62,0,18.85-7.92,22.62-12.14v-62.82Z"></path><path class="cls-1" d="M1020.58,939.37v15.84h-35.54.54-4.85c-36.62,0-58.16-21.64-59.24-60.18v-71.79c0-15.31.54-34.31-9.15-44.34-5.39-5.28-12.93-7.92-22.62-7.92-22.62,0-31.77,25.34-32.85,27.98v99.25c0,18.48,0,30.09,5.92,35.9,3.77,3.7,9.15,5.28,18.85,5.28h2.15v15.84h-35,.54-4.85c-36.62,0-58.16-21.64-59.24-60.18v-70.21c0-15.84.54-35.9-10.23-45.93-4.85-5.28-12.39-7.92-22.08-7.92-23.16,0-31.23,25.34-31.77,27.98v100.83c-.54,17.42-.54,29.04,5.38,34.31,3.23,3.7,9.16,5.28,18.31,5.28h2.16v15.84h-38.77c-37.16,0-58.7-21.64-59.78-60.18v-74.43c0-16.89.54-27.98-5.39-33.79-3.23-3.17-9.15-4.75-18.85-4.75h-2.16v-14.78l99.09-25.34v25.34c19.92-18.48,42.54-26.39,72.16-26.39,24.23,0,44.7,11.09,56,30.62,24.24-21.12,49.54-30.62,80.78-30.62,37.7,0,63.55,30.62,63.55,57.54v100.83c0,17.95,0,29.56,5.38,34.84,3.77,3.7,9.69,5.28,19.39,5.28h2.16Z"></path><path class="cls-1" d="M1127.74,973.68c-.54,17.42-.54,29.04,5.38,34.84,3.23,3.17,9.69,4.75,18.85,4.75h2.16v16.37h-39.31c-36.62,0-58.7-21.64-59.77-60.18v-150.98c.54-17.42.54-28.51-5.39-33.79-3.23-3.7-9.15-5.28-18.85-5.28h-2.16v-14.25l99.09-25.34v14.25c8.62-4.22,32.85-14.78,61.93-14.78,63.01,0,100.7,51.73,100.7,101.89,0,71.79-51.16,114.03-137.32,114.03-8.62,0-18.85,0-25.31-.53v19ZM1141.74,931.98c4.85,4.75,11.31,7.39,19.39,7.39,31.77,0,51.16-43.29,51.16-82.88,0-43.29-24.23-90.27-63.01-90.27-12.93,0-18.85,3.7-21.54,6.33v86.05c0,26.39-.54,59.13,14,73.38Z"></path><path class="cls-1" d="M1572.01,913.5v40.65h-51.7c-21-.53-37.7-8.45-47.39-22.7-22.62,16.36-52.23,23.75-85.62,23.75s-59.78-23.23-61.39-60.18v-90.27c.54-16.89,1.08-36.95-5.92-43.82-3.23-3.17-9.15-4.75-18.31-4.75h-2.16v-15.84h99.09v137.25c0,32.2,11.85,46.98,37.7,46.98,17.77,0,31.23-9.5,36.62-25.34v-102.94c0-17.95.54-29.56-5.38-35.37-3.23-3.17-9.16-4.75-18.85-4.75h-2.16v-15.84h99.09v133.56c0,17.42-.54,29.04,5.39,34.84,3.77,3.17,9.69,4.75,18.85,4.75h2.15Z"></path><path class="cls-1" d="M1753.49,884.47c0,44.34-36.08,70.74-97.47,70.74-8.62,0-17.23-.53-24.77-1.06-27.47-5.28-43.62-26.39-44.7-59.13v-15.84h11.31l.54,1.58c4.31,16.37,18.85,55.43,55.47,55.43,11.31,0,30.7-3.7,30.7-27.45,0-19-22.08-29.56-45.77-40.65-2.69-1.06-5.92-2.64-8.62-4.22-29.08-14.25-47.39-30.09-47.39-64.93,0-42.23,30.7-63.88,91.55-63.88,22.08,0,53.85,6.34,67.85,10.56l1.61.53v57.54h-12.39v-1.59c-9.16-29.56-29.62-48.57-52.24-48.57-13.46,0-28,6.34-28,21.64,0,18.48,13.46,24.28,32.31,32.73,2.16,1.06,4.31,2.11,6.46,3.17,31.23,14.78,63.55,29.56,63.55,73.38Z"></path></g><path class="cls-1" d="M1518.32,50.59c-78.77-3.05-156.68,25.17-215.2,77.98-63.67,57.45-92.12,131.43-99.63,215.06-5.77,64.24-18.54,119.54-65.92,166.62-41.04,40.77-97.37,64.12-155.24,64.12-121.59.01-220.43-98.82-220.41-220.42.02-121.51,98.88-220.36,220.39-220.36,39.07,0,77.41,10.34,110.92,29.9,19.83,11.57,46.39,5.37,57.92-14.48,11.48-19.77,4.87-45.12-14.85-56.75-46.5-27.41-99.75-41.9-153.99-41.9-78.98,0-155.91,31.54-212.33,86.79-64.29,62.97-85.79,139.66-91.97,226.9-1.74,24.51-5.88,48.77-15.05,71.66-30.6,78.55-109.12,134.93-193.43,138.37-56.9,3.52-114.02-17.39-156.79-54.75-12.61-11.01-23.98-23.44-33.73-37.05-4.5-6.27-9.77-12.19-13.2-19.16-3.59-7.3-4.96-16.37,1.68-22.36,5.81-5.24,13.1-2.77,20-2.77,52.13,0,103.87-13.56,149.22-39.26,44.15-25.02,81.78-61.13,108.62-104.19,27.52-44.15,43.21-95.01,45.33-146.95.62-15.29-.98-30.58.54-45.56.76-7.49,2.3-14.89,5.29-22.18,3.03-7.39,6.71-14.52,11.09-21.2.47-.71.95-1.42,1.43-2.13-9.82,3.7-20.07,6.34-30.72,8.02-11.93,1.88-24.17,1.02-35.77-2.33-27.25-7.86-55.49-11.84-84.21-11.84-152.86,0-279.69,113.56-300.59,260.74-2.24,15.77-17.87,25.93-33.11,21.29-2.89-.88-5.79-1.82-8.68-2.82-1.95-.68-3.78,1.33-2.85,3.18,7.22,14.36,16.07,28.44,26.48,41.92,11.21,14.5,18.86,31.34,23.02,49.19,32.48,139.25,165.52,242.25,311.11,233.35,81.61-3.36,155.67-41.1,208.29-98.55,20.62-22.51,55.87-22.29,76.49.22,55.54,60.64,135.32,98.72,223.84,98.72s168.13-38,223.66-98.52c20.71-22.57,55.97-22.57,76.68,0,55.54,60.52,135.24,98.52,223.66,98.52,171.4,0,310.08-142.76,303.39-315.62-6.1-157.58-133.81-285.28-291.39-291.38ZM1693.81,469.69c-12.33,18.5-27.76,35.18-42.83,49.21-7.13,6.64-14.64,12.72-22.4,18.36-30.73,20.57-66.9,33.62-105.86,36.51-3.3.24-5.07-3.86-2.54-5.99,8.07-6.79,14.96-14.6,18.7-25.2,12.25-29.82,73.72-41.11,63.38-80.34-14.05-37.53-64.32-24.96-88.82-49.63-81.57-90.15-93.23.19-164.99-65.63-13.34-12.99-20.64-30.81-19.29-49.46.92-12.69,9.11-32.64,25.45-25.34,48.04,33.34,49.68-26.25,73.81-52.72,20.1-31.22,73.76-36.24,80.62-73.5.96-5.24,5.88-8.84,11.15-8.09,37.61,5.36,89.82,25.92,96.53,64.19-.06,24.31-17.38,45.24-14.75,70.3-1.17,31.24,17.01,67.58,51.67,69.13,23.39,1.49,61.16,18.05,64.36,44.07,1.7,13.83.27,27.37-3.38,40.42-5.34,15.42-12.36,30.07-20.82,43.74ZM1285.93,353.98c0-3.43.08-6.83.24-10.22.27-5.81,7.9-7.91,10.92-2.94,11.45,18.84,31.69,35.45,62.97,47.92,25.45,13.37,29.14,5.37,18.44,36.34-17.13,86.31,66.69,44.04,63.49,124.75-.3,7.51-7.83,12.55-14.84,9.84-82.53-31.87-141.22-112.05-141.22-205.68Z"></path></svg>